STARTFONT 2.1
COMMENT
COMMENT Converted from OpenType font "04B_03__.TTF" by "otf2bdf 3.0".
COMMENT
FONT -FreeType-04b03-Medium-R-Normal--11-80-100-100-P-53-ISO10646-1
SIZE 8 100 100
FONTBOUNDINGBOX 7 10 0 -3
STARTPROPERTIES 19
FOUNDRY "FreeType"
FAMILY_NAME "04b03"
WEIGHT_NAME "Medium"
SLANT "R"
SETWIDTH_NAME "Normal"
ADD_STYLE_NAME ""
PIXEL_SIZE 11
POINT_SIZE 80
RESOLUTION_X 100
RESOLUTION_Y 100
SPACING "P"
AVERAGE_WIDTH 53
CHARSET_REGISTRY "ISO10646"
CHARSET_ENCODING "1"
FONT_ASCENT 8
FONT_DESCENT 2
COPYRIGHT "19992003 / yuji oshimoÿo / 04@dsg4.com / www.04.jp.org"
_OTF_FONTFILE "04B_03__.TTF"
_OTF_PSNAME "04b03"
ENDPROPERTIES
CHARS 97
STARTCHAR 0020
ENCODING 32
SWIDTH 540 0
DWIDTH 6 0
BBX 0 0 0 0
BITMAP
ENDCHAR
STARTCHAR 0021
ENCODING 33
SWIDTH 270 0
DWIDTH 3 0
BBX 1 7 0 0
BITMAP
80
80
80
80
80
00
80
ENDCHAR
STARTCHAR 0022
ENCODING 34
SWIDTH 540 0
DWIDTH 6 0
BBX 4 3 0 4
BITMAP
90
90
90
ENDCHAR
STARTCHAR 0023
ENCODING 35
SWIDTH 720 0
DWIDTH 8 0
BBX 7 7 0 0
BITMAP
6C
FE
FE
6C
FE
FE
6C
ENDCHAR
STARTCHAR 0024
ENCODING 36
SWIDTH 630 0
DWIDTH 7 0
BBX 6 8 0 -1
BITMAP
10
7C
7C
7C
E0
1C
F0
10
ENDCHAR
STARTCHAR 0025
ENCODING 37
SWIDTH 720 0
DWIDTH 8 0
BBX 7 7 0 0
BITMAP
8C
0C
0C
10
60
60
62
ENDCHAR
STARTCHAR 0026
ENCODING 38
SWIDTH 720 0
DWIDTH 8 0
BBX 7 7 0 0
BITMAP
70
80
72
72
72
8C
72
ENDCHAR
STARTCHAR 0027
ENCODING 39
SWIDTH 270 0
DWIDTH 3 0
BBX 1 3 0 4
BITMAP
80
80
80
ENDCHAR
STARTCHAR 0028
ENCODING 40
SWIDTH 360 0
DWIDTH 4 0
BBX 3 7 0 0
BITMAP
60
80
80
80
80
80
60
ENDCHAR
STARTCHAR 0029
ENCODING 41
SWIDTH 360 0
DWIDTH 4 0
BBX 3 7 0 0
BITMAP
80
60
60
60
60
60
80
ENDCHAR
STARTCHAR 002A
ENCODING 42
SWIDTH 540 0
DWIDTH 6 0
BBX 4 4 0 3
BITMAP
90
60
90
90
ENDCHAR
STARTCHAR 002B
ENCODING 43
SWIDTH 540 0
DWIDTH 6 0
BBX 4 5 0 1
BITMAP
60
60
F0
60
60
ENDCHAR
STARTCHAR 002C
ENCODING 44
SWIDTH 360 0
DWIDTH 4 0
BBX 3 2 0 -1
BITMAP
60
80
ENDCHAR
STARTCHAR 002D
ENCODING 45
SWIDTH 540 0
DWIDTH 6 0
BBX 4 1 0 3
BITMAP
F0
ENDCHAR
STARTCHAR 002E
ENCODING 46
SWIDTH 270 0
DWIDTH 3 0
BBX 1 1 0 0
BITMAP
80
ENDCHAR
STARTCHAR 002F
ENCODING 47
SWIDTH 720 0
DWIDTH 8 0
BBX 7 7 0 0
BITMAP
02
0C
0C
10
60
60
80
ENDCHAR
STARTCHAR 0030
ENCODING 48
SWIDTH 630 0
DWIDTH 7 0
BBX 6 7 0 0
BITMAP
70
8C
8C
8C
8C
8C
70
ENDCHAR
STARTCHAR 0031
ENCODING 49
SWIDTH 360 0
DWIDTH 4 0
BBX 3 7 0 0
BITMAP
E0
60
60
60
60
60
60
ENDCHAR
STARTCHAR 0032
ENCODING 50
SWIDTH 630 0
DWIDTH 7 0
BBX 6 7 0 0
BITMAP
F0
0C
70
70
70
80
FC
ENDCHAR
STARTCHAR 0033
ENCODING 51
SWIDTH 630 0
DWIDTH 7 0
BBX 6 7 0 0
BITMAP
F0
0C
0C
0C
70
0C
F0
ENDCHAR
STARTCHAR 0034
ENCODING 52
SWIDTH 630 0
DWIDTH 7 0
BBX 6 7 0 0
BITMAP
10
70
90
90
90
FC
10
ENDCHAR
STARTCHAR 0035
ENCODING 53
SWIDTH 630 0
DWIDTH 7 0
BBX 6 7 0 0
BITMAP
FC
80
F0
F0
F0
0C
F0
ENDCHAR
STARTCHAR 0036
ENCODING 54
SWIDTH 630 0
DWIDTH 7 0
BBX 6 7 0 0
BITMAP
70
80
80
80
F0
8C
70
ENDCHAR
STARTCHAR 0037
ENCODING 55
SWIDTH 630 0
DWIDTH 7 0
BBX 6 7 0 0
BITMAP
FC
0C
10
60
60
60
60
ENDCHAR
STARTCHAR 0038
ENCODING 56
SWIDTH 630 0
DWIDTH 7 0
BBX 6 7 0 0
BITMAP
70
8C
70
70
70
8C
70
ENDCHAR
STARTCHAR 0039
ENCODING 57
SWIDTH 630 0
DWIDTH 7 0
BBX 6 7 0 0
BITMAP
70
8C
7C
0C
0C
0C
70
ENDCHAR
STARTCHAR 003A
ENCODING 58
SWIDTH 270 0
DWIDTH 3 0
BBX 1 5 0 1
BITMAP
80
80
00
80
80
ENDCHAR
STARTCHAR 003B
ENCODING 59
SWIDTH 270 0
DWIDTH 3 0
BBX 1 6 0 0
BITMAP
80
80
00
80
80
80
ENDCHAR
STARTCHAR 003C
ENCODING 60
SWIDTH 540 0
DWIDTH 6 0
BBX 4 7 0 0
BITMAP
10
00
60
80
60
00
10
ENDCHAR
STARTCHAR 003D
ENCODING 61
SWIDTH 540 0
DWIDTH 6 0
BBX 4 5 0 1
BITMAP
F0
F0
00
F0
F0
ENDCHAR
STARTCHAR 003E
ENCODING 62
SWIDTH 540 0
DWIDTH 6 0
BBX 4 7 0 0
BITMAP
80
60
60
10
60
00
80
ENDCHAR
STARTCHAR 003F
ENCODING 63
SWIDTH 630 0
DWIDTH 7 0
BBX 6 7 0 0
BITMAP
F0
0C
70
70
70
00
60
ENDCHAR
STARTCHAR 0040
ENCODING 64
SWIDTH 720 0
DWIDTH 8 0
BBX 7 7 0 0
BITMAP
7C
82
82
9E
92
92
7C
ENDCHAR
STARTCHAR 0041
ENCODING 65
SWIDTH 630 0
DWIDTH 7 0
BBX 6 7 0 0
BITMAP
70
8C
8C
8C
8C
FC
8C
ENDCHAR
STARTCHAR 0042
ENCODING 66
SWIDTH 630 0
DWIDTH 7 0
BBX 6 7 0 0
BITMAP
F0
8C
F0
F0
F0
8C
F0
ENDCHAR
STARTCHAR 0043
ENCODING 67
SWIDTH 540 0
DWIDTH 6 0
BBX 4 7 0 0
BITMAP
70
80
80
80
80
80
70
ENDCHAR
STARTCHAR 0044
ENCODING 68
SWIDTH 630 0
DWIDTH 7 0
BBX 6 7 0 0
BITMAP
F0
8C
8C
8C
8C
8C
F0
ENDCHAR
STARTCHAR 0045
ENCODING 69
SWIDTH 540 0
DWIDTH 6 0
BBX 4 7 0 0
BITMAP
F0
80
F0
F0
F0
80
F0
ENDCHAR
STARTCHAR 0046
ENCODING 70
SWIDTH 540 0
DWIDTH 6 0
BBX 4 7 0 0
BITMAP
F0
80
F0
F0
80
80
80
ENDCHAR
STARTCHAR 0047
ENCODING 71
SWIDTH 630 0
DWIDTH 7 0
BBX 6 7 0 0
BITMAP
7C
80
80
9C
8C
8C
7C
ENDCHAR
STARTCHAR 0048
ENCODING 72
SWIDTH 630 0
DWIDTH 7 0
BBX 6 7 0 0
BITMAP
8C
8C
8C
FC
8C
8C
8C
ENDCHAR
STARTCHAR 0049
ENCODING 73
SWIDTH 540 0
DWIDTH 6 0
BBX 4 7 0 0
BITMAP
F0
60
60
60
60
60
F0
ENDCHAR
STARTCHAR 004A
ENCODING 74
SWIDTH 630 0
DWIDTH 7 0
BBX 6 7 0 0
BITMAP
1C
0C
0C
0C
8C
8C
70
ENDCHAR
STARTCHAR 004B
ENCODING 75
SWIDTH 630 0
DWIDTH 7 0
BBX 6 7 0 0
BITMAP
8C
90
90
E0
90
80
8C
ENDCHAR
STARTCHAR 004C
ENCODING 76
SWIDTH 540 0
DWIDTH 6 0
BBX 4 7 0 0
BITMAP
80
80
80
80
80
80
F0
ENDCHAR
STARTCHAR 004D
ENCODING 77
SWIDTH 720 0
DWIDTH 8 0
BBX 7 7 0 0
BITMAP
82
EE
EE
92
82
82
82
ENDCHAR
STARTCHAR 004E
ENCODING 78
SWIDTH 630 0
DWIDTH 7 0
BBX 6 7 0 0
BITMAP
8C
EC
EC
9C
8C
8C
8C
ENDCHAR
STARTCHAR 004F
ENCODING 79
SWIDTH 630 0
DWIDTH 7 0
BBX 6 7 0 0
BITMAP
70
8C
8C
8C
8C
8C
70
ENDCHAR
STARTCHAR 0050
ENCODING 80
SWIDTH 630 0
DWIDTH 7 0
BBX 6 7 0 0
BITMAP
F0
8C
8C
8C
8C
F0
80
ENDCHAR
STARTCHAR 0051
ENCODING 81
SWIDTH 630 0
DWIDTH 7 0
BBX 6 8 0 -1
BITMAP
70
8C
8C
8C
8C
8C
70
0C
ENDCHAR
STARTCHAR 0052
ENCODING 82
SWIDTH 630 0
DWIDTH 7 0
BBX 6 7 0 0
BITMAP
F0
8C
8C
8C
8C
F0
8C
ENDCHAR
STARTCHAR 0053
ENCODING 83
SWIDTH 630 0
DWIDTH 7 0
BBX 6 7 0 0
BITMAP
7C
80
70
70
70
0C
F0
ENDCHAR
STARTCHAR 0054
ENCODING 84
SWIDTH 540 0
DWIDTH 6 0
BBX 4 7 0 0
BITMAP
F0
60
60
60
60
60
60
ENDCHAR
STARTCHAR 0055
ENCODING 85
SWIDTH 630 0
DWIDTH 7 0
BBX 6 7 0 0
BITMAP
8C
8C
8C
8C
8C
8C
70
ENDCHAR
STARTCHAR 0056
ENCODING 86
SWIDTH 630 0
DWIDTH 7 0
BBX 6 7 0 0
BITMAP
8C
8C
8C
90
90
90
60
ENDCHAR
STARTCHAR 0057
ENCODING 87
SWIDTH 720 0
DWIDTH 8 0
BBX 7 7 0 0
BITMAP
82
92
92
92
92
92
6C
ENDCHAR
STARTCHAR 0058
ENCODING 88
SWIDTH 630 0
DWIDTH 7 0
BBX 6 7 0 0
BITMAP
8C
8C
8C
70
8C
8C
8C
ENDCHAR
STARTCHAR 0059
ENCODING 89
SWIDTH 630 0
DWIDTH 7 0
BBX 6 7 0 0
BITMAP
8C
8C
8C
7C
7C
0C
70
ENDCHAR
STARTCHAR 005A
ENCODING 90
SWIDTH 540 0
DWIDTH 6 0
BBX 4 7 0 0
BITMAP
F0
10
60
60
60
80
F0
ENDCHAR
STARTCHAR 005B
ENCODING 91
SWIDTH 360 0
DWIDTH 4 0
BBX 3 7 0 0
BITMAP
E0
80
80
80
80
80
E0
ENDCHAR
STARTCHAR 005C
ENCODING 92
SWIDTH 720 0
DWIDTH 8 0
BBX 7 7 0 0
BITMAP
80
60
60
10
0C
0C
02
ENDCHAR
STARTCHAR 005D
ENCODING 93
SWIDTH 360 0
DWIDTH 4 0
BBX 3 7 0 0
BITMAP
E0
60
60
60
60
60
E0
ENDCHAR
STARTCHAR 005E
ENCODING 94
SWIDTH 540 0
DWIDTH 6 0
BBX 4 3 0 4
BITMAP
60
90
90
ENDCHAR
STARTCHAR 005F
ENCODING 95
SWIDTH 630 0
DWIDTH 7 0
BBX 6 1 0 0
BITMAP
FC
ENDCHAR
STARTCHAR 0060
ENCODING 96
SWIDTH 360 0
DWIDTH 4 0
BBX 3 3 0 4
BITMAP
80
60
60
ENDCHAR
STARTCHAR 0061
ENCODING 97
SWIDTH 630 0
DWIDTH 7 0
BBX 6 6 0 0
BITMAP
7C
8C
8C
8C
8C
7C
ENDCHAR
STARTCHAR 0062
ENCODING 98
SWIDTH 630 0
DWIDTH 7 0
BBX 6 7 0 0
BITMAP
80
F0
8C
8C
8C
8C
F0
ENDCHAR
STARTCHAR 0063
ENCODING 99
SWIDTH 540 0
DWIDTH 6 0
BBX 4 6 0 0
BITMAP
70
70
80
80
70
70
ENDCHAR
STARTCHAR 0064
ENCODING 100
SWIDTH 630 0
DWIDTH 7 0
BBX 6 7 0 0
BITMAP
0C
7C
8C
8C
8C
8C
7C
ENDCHAR
STARTCHAR 0065
ENCODING 101
SWIDTH 630 0
DWIDTH 7 0
BBX 6 6 0 0
BITMAP
70
70
9C
E0
E0
70
ENDCHAR
STARTCHAR 0066
ENCODING 102
SWIDTH 540 0
DWIDTH 6 0
BBX 4 7 0 0
BITMAP
10
60
F0
F0
60
60
60
ENDCHAR
STARTCHAR 0067
ENCODING 103
SWIDTH 630 0
DWIDTH 7 0
BBX 6 9 0 -3
BITMAP
7C
8C
8C
8C
8C
7C
0C
0C
70
ENDCHAR
STARTCHAR 0068
ENCODING 104
SWIDTH 630 0
DWIDTH 7 0
BBX 6 7 0 0
BITMAP
80
F0
F0
8C
8C
8C
8C
ENDCHAR
STARTCHAR 0069
ENCODING 105
SWIDTH 270 0
DWIDTH 3 0
BBX 1 7 0 0
BITMAP
80
00
80
80
80
80
80
ENDCHAR
STARTCHAR 006A
ENCODING 106
SWIDTH 360 0
DWIDTH 4 0
BBX 3 10 0 -3
BITMAP
60
00
60
60
60
60
60
60
80
80
ENDCHAR
STARTCHAR 006B
ENCODING 107
SWIDTH 630 0
DWIDTH 7 0
BBX 6 7 0 0
BITMAP
80
8C
8C
8C
F0
F0
8C
ENDCHAR
STARTCHAR 006C
ENCODING 108
SWIDTH 270 0
DWIDTH 3 0
BBX 1 7 0 0
BITMAP
80
80
80
80
80
80
80
ENDCHAR
STARTCHAR 006D
ENCODING 109
SWIDTH 720 0
DWIDTH 8 0
BBX 7 6 0 0
BITMAP
FC
FC
92
92
92
92
ENDCHAR
STARTCHAR 006E
ENCODING 110
SWIDTH 630 0
DWIDTH 7 0
BBX 6 6 0 0
BITMAP
F0
F0
8C
8C
8C
8C
ENDCHAR
STARTCHAR 006F
ENCODING 111
SWIDTH 630 0
DWIDTH 7 0
BBX 6 6 0 0
BITMAP
70
8C
8C
8C
8C
70
ENDCHAR
STARTCHAR 0070
ENCODING 112
SWIDTH 630 0
DWIDTH 7 0
BBX 6 9 0 -3
BITMAP
F0
8C
8C
8C
8C
F0
80
80
80
ENDCHAR
STARTCHAR 0071
ENCODING 113
SWIDTH 630 0
DWIDTH 7 0
BBX 6 9 0 -3
BITMAP
7C
8C
8C
8C
8C
7C
0C
0C
0C
ENDCHAR
STARTCHAR 0072
ENCODING 114
SWIDTH 540 0
DWIDTH 6 0
BBX 4 6 0 0
BITMAP
90
90
E0
80
80
80
ENDCHAR
STARTCHAR 0073
ENCODING 115
SWIDTH 630 0
DWIDTH 7 0
BBX 6 6 0 0
BITMAP
7C
7C
7C
E0
1C
F0
ENDCHAR
STARTCHAR 0074
ENCODING 116
SWIDTH 540 0
DWIDTH 6 0
BBX 4 7 0 0
BITMAP
60
F0
F0
F0
60
60
10
ENDCHAR
STARTCHAR 0075
ENCODING 117
SWIDTH 630 0
DWIDTH 7 0
BBX 6 6 0 0
BITMAP
8C
8C
8C
8C
8C
7C
ENDCHAR
STARTCHAR 0076
ENCODING 118
SWIDTH 630 0
DWIDTH 7 0
BBX 6 6 0 0
BITMAP
8C
8C
8C
90
90
60
ENDCHAR
STARTCHAR 0077
ENCODING 119
SWIDTH 720 0
DWIDTH 8 0
BBX 7 6 0 0
BITMAP
92
92
92
6C
6C
6C
ENDCHAR
STARTCHAR 0078
ENCODING 120
SWIDTH 540 0
DWIDTH 6 0
BBX 4 6 0 0
BITMAP
90
90
90
60
60
90
ENDCHAR
STARTCHAR 0079
ENCODING 121
SWIDTH 630 0
DWIDTH 7 0
BBX 6 9 0 -3
BITMAP
8C
8C
8C
8C
8C
7C
0C
70
70
ENDCHAR
STARTCHAR 007A
ENCODING 122
SWIDTH 630 0
DWIDTH 7 0
BBX 6 6 0 0
BITMAP
FC
FC
10
60
FC
FC
ENDCHAR
STARTCHAR 007B
ENCODING 123
SWIDTH 540 0
DWIDTH 6 0
BBX 4 7 0 0
BITMAP
70
60
60
80
60
70
70
ENDCHAR
STARTCHAR 007C
ENCODING 124
SWIDTH 270 0
DWIDTH 3 0
BBX 1 7 0 0
BITMAP
80
80
80
80
80
80
80
ENDCHAR
STARTCHAR 007D
ENCODING 125
SWIDTH 540 0
DWIDTH 6 0
BBX 4 7 0 0
BITMAP
E0
60
60
10
60
E0
E0
ENDCHAR
STARTCHAR 007E
ENCODING 126
SWIDTH 630 0
DWIDTH 7 0
BBX 6 3 0 4
BITMAP
6C
90
90
ENDCHAR
STARTCHAR 00A0
ENCODING 160
SWIDTH 540 0
DWIDTH 6 0
BBX 0 0 0 0
BITMAP
ENDCHAR
STARTCHAR 2010
ENCODING 8208
SWIDTH 540 0
DWIDTH 6 0
BBX 4 1 0 3
BITMAP
F0
ENDCHAR
ENDFONT
